<svg xmlns="http://www.w3.org/2000/svg" viewBox="0 0 502.93 500.44"><defs><style>.cls-1{fill:none;stroke:#999;stroke-miterlimit:10;}</style></defs><g id="Слой_2" data-name="Слой 2"><g id="Слой_1-2" data-name="Слой 1"><path class="cls-1" d="M231.49,187.66,218.75,200.4l20.31,20.31-16.43,16.43-20.31-20.31-12.74,12.74,20.31,20.31L189.58,270.2l12.74,12.74,20.31-20.32,16.43,16.43-20.31,20.32,12.74,12.74,20.31-20.32,20.32,20.32,12.74-12.74-20.32-20.32L281,262.62l20.32,20.32L314,270.2l-20.32-20.32L314,229.57l-12.74-12.74L281,237.14l-16.43-16.43,20.32-20.31-12.74-12.74L251.8,208Zm36.74,62.22L251.8,266.31l-16.43-16.43,16.43-16.43Z"/><rect class="cls-1" x="312.56" y="240.95" width="17.87" height="17.87" transform="translate(-82.53 300.52) rotate(-45)"/><rect class="cls-1" x="172.5" y="240.95" width="17.87" height="17.87" transform="translate(-123.55 201.48) rotate(-45)"/><rect class="cls-1" x="242.53" y="310.98" width="17.87" height="17.87" transform="translate(-152.56 271.51) rotate(-45)"/><rect class="cls-1" x="242.53" y="170.92" width="17.87" height="17.87" transform="translate(-53.52 230.49) rotate(-45)"/><path class="cls-1" d="M502.22,216l-60-60-39.77,39.77,30.09,30.1,12.74-12.74L428,195.82l14.29-14.28,34.5,34.5-25.17,25.17h-78.1l-70.38-70.38,48.27-48.26,24.94,25-14.84,14.84-14.84-14.83-12.74,12.74,27.58,27.57,40.32-40.32L351.36,97.09,345,103.46h0l-14.94,15L307.3,141.15h0l-16.95,16.94-29.88-29.88V51.36l25.17-25.17,34.51,34.5L305.86,75,288.51,57.62,275.77,70.36l30.09,30.1,39.77-39.77-60-60L251.46,34.89,217.28.71l-60,60,39.77,39.77,30.09-30.1L214.42,57.62,197.07,75,182.78,60.69l34.5-34.5,25.18,25.17v76.85l-29.88,29.88-17-16.94h0l-22-22-15.66-15.66h0l-6.37-6.37-50.43,50.43,40.33,40.32,27.58-27.57-12.74-12.74-14.84,14.83-14.84-14.84,24.94-25,48.26,48.26-70.37,70.38H51.36L26.19,216l34.5-34.5L75,195.82,57.62,213.18l12.74,12.74,30.1-30.1L60.69,156.05l-60,60,34.18,34.18L.71,284.4l60,60,39.77-39.76-30.1-30.1L57.62,287.26,75,304.62,60.69,318.9l-34.5-34.5,25.17-25.17h78.1l70.37,70.37-48.26,48.27-24.94-24.95,14.84-14.85,14.84,14.84,12.74-12.74-27.58-27.58-40.33,40.33,50.43,50.43,6.37-6.37h0l16.33-16.33,21.36-21.36h0l17-16.94,29.88,29.87v76.86l-25.18,25.17-34.5-34.5,14.29-14.29,17.35,17.36,12.74-12.75L197.07,400,157.3,439.75l60,60,34.18-34.18,34.18,34.18,60-60L305.86,400l-30.09,30.09,12.74,12.75,17.35-17.36,14.29,14.29-34.51,34.5-25.17-25.17V372.22l29.88-29.87,16.95,16.94h0l22,22L345,397h0l6.37,6.37,50.42-50.43-40.32-40.33-27.58,27.58,12.74,12.74,14.84-14.84,14.84,14.85-24.94,24.95L303.09,329.6l70.38-70.37h78.1l25.17,25.17-34.5,34.5L428,304.62l17.35-17.36-12.74-12.74-30.09,30.1,39.77,39.76,60-60L468,250.22ZM251.8,356.43,145.59,250.22,251.8,144,358,250.22Z"/></g></g></svg>