<?xml version="1.0" encoding="UTF-8"?>
<svg id="_Слой_2" data-name="Слой_2" xmlns="http://www.w3.org/2000/svg" viewBox="0 0 1772 855">
  <defs>
    <style>
      .cls-1 {
        fill: #003e92;
      }

      .cls-2 {
        fill: #00a1ed;
      }

      .cls-3 {
        fill: #707070;
      }

      .cls-4 {
        fill: #b7b7b7;
      }

      .cls-5 {
        fill: #fff;
      }

      .cls-6 {
        fill: #012f60;
      }
    </style>
  </defs>
  <g id="_Слой_1-2" data-name="Слой_1">
    <g>
      <g>
        <path id="_Вычитание_1" data-name="Вычитание_1" class="cls-5" d="M1707,855H65c-12.95.02-25.61-3.85-36.34-11.1-10.45-7.06-18.63-16.99-23.55-28.6C1.72,807.3-.02,798.69,0,790v-107h.5c20.16,0,36.5-16.34,36.5-36.5s-16.34-36.5-36.5-36.5H0V65c-.02-12.95,3.85-25.61,11.1-36.34,7.05-10.45,16.99-18.63,28.6-23.55C47.7,1.72,56.31-.02,65,0h1642c12.95-.02,25.61,3.85,36.34,11.1,10.45,7.06,18.63,16.99,23.55,28.6,3.39,8,5.12,16.61,5.11,25.3v545h-.5c-20.16,0-36.5,16.34-36.5,36.5s16.34,36.5,36.5,36.5h.5v107c.02,12.95-3.85,25.61-11.1,36.34-7.05,10.45-16.99,18.63-28.6,23.55-8,3.39-16.61,5.12-25.3,5.11Z"/>
        <path id="_Вычитание_1_-_Рамка" data-name="Вычитание_1_-_Рамка" class="cls-3" d="M1707,854c12.75.02,25.22-3.79,35.78-10.93,10.29-6.95,18.34-16.73,23.19-28.16,3.34-7.88,5.05-16.35,5.03-24.91v-106c-20.71,0-37.5-16.79-37.5-37.5s16.79-37.5,37.5-37.5V65c.02-12.75-3.79-25.22-10.93-35.78-6.95-10.29-16.73-18.34-28.16-23.19-7.88-3.34-16.35-5.05-24.91-5.03H65c-12.75-.02-25.22,3.79-35.78,10.93-10.29,6.95-18.34,16.73-23.19,28.16-3.34,7.88-5.05,16.35-5.03,24.91v544c20.71,0,37.5,16.79,37.5,37.5s-16.79,37.5-37.5,37.5v106c-.02,12.75,3.79,25.22,10.93,35.78,6.95,10.29,16.73,18.34,28.16,23.19,7.88,3.34,16.35,5.05,24.91,5.03h1642M1707,855H65c-12.95.02-25.61-3.85-36.34-11.1-10.45-7.06-18.63-16.99-23.55-28.6C1.72,807.3-.02,798.69,0,790v-107h.5c20.16,0,36.5-16.34,36.5-36.5s-16.34-36.5-36.5-36.5H0V65c-.02-12.95,3.85-25.61,11.1-36.34,7.05-10.45,16.99-18.63,28.6-23.55C47.7,1.72,56.31-.02,65,0h1642c12.95-.02,25.61,3.85,36.34,11.1,10.45,7.06,18.63,16.99,23.55,28.6,3.39,8,5.12,16.61,5.11,25.3v545h-.5c-20.16,0-36.5,16.34-36.5,36.5s16.34,36.5,36.5,36.5h.5v107c.02,12.95-3.85,25.61-11.1,36.34-7.05,10.45-16.99,18.63-28.6,23.55-8,3.39-16.61,5.12-25.3,5.11Z"/>
      </g>
      <path id="_Линия_2" data-name="Линия_2" class="cls-4" d="M1151,429h-5c-.83,0-1.5-.67-1.5-1.5s.67-1.5,1.5-1.5h5c.83,0,1.5.67,1.5,1.5s-.67,1.5-1.5,1.5ZM1136,429h-5c-.83,0-1.5-.67-1.5-1.5s.67-1.5,1.5-1.5h5c.83,0,1.5.67,1.5,1.5s-.67,1.5-1.5,1.5ZM1121,429h-5c-.83,0-1.5-.67-1.5-1.5s.67-1.5,1.5-1.5h5c.83,0,1.5.67,1.5,1.5s-.67,1.5-1.5,1.5ZM1106,429h-5c-.83,0-1.5-.67-1.5-1.5s.67-1.5,1.5-1.5h5c.83,0,1.5.67,1.5,1.5s-.67,1.5-1.5,1.5ZM1091,429h-5c-.83,0-1.5-.67-1.5-1.5s.67-1.5,1.5-1.5h5c.83,0,1.5.67,1.5,1.5s-.67,1.5-1.5,1.5ZM1076,429h-5c-.83,0-1.5-.67-1.5-1.5s.67-1.5,1.5-1.5h5c.83,0,1.5.67,1.5,1.5s-.67,1.5-1.5,1.5ZM1061,429h-5c-.83,0-1.5-.67-1.5-1.5s.67-1.5,1.5-1.5h5c.83,0,1.5.67,1.5,1.5s-.67,1.5-1.5,1.5ZM1046,429h-5c-.83,0-1.5-.67-1.5-1.5s.67-1.5,1.5-1.5h5c.83,0,1.5.67,1.5,1.5s-.67,1.5-1.5,1.5ZM1031,429h-5c-.83,0-1.5-.67-1.5-1.5s.67-1.5,1.5-1.5h5c.83,0,1.5.67,1.5,1.5s-.67,1.5-1.5,1.5ZM1016,429h-5c-.83,0-1.5-.67-1.5-1.5s.67-1.5,1.5-1.5h5c.83,0,1.5.67,1.5,1.5s-.67,1.5-1.5,1.5ZM1001,429h-5c-.83,0-1.5-.67-1.5-1.5s.67-1.5,1.5-1.5h5c.83,0,1.5.67,1.5,1.5s-.67,1.5-1.5,1.5ZM986,429h-5c-.83,0-1.5-.67-1.5-1.5s.67-1.5,1.5-1.5h5c.83,0,1.5.67,1.5,1.5s-.67,1.5-1.5,1.5ZM971,429h-5c-.83,0-1.5-.67-1.5-1.5s.67-1.5,1.5-1.5h5c.83,0,1.5.67,1.5,1.5s-.67,1.5-1.5,1.5ZM956,429h-5c-.83,0-1.5-.67-1.5-1.5s.67-1.5,1.5-1.5h5c.83,0,1.5.67,1.5,1.5s-.67,1.5-1.5,1.5ZM941,429h-5c-.83,0-1.5-.67-1.5-1.5s.67-1.5,1.5-1.5h5c.83,0,1.5.67,1.5,1.5s-.67,1.5-1.5,1.5ZM926,429h-5c-.83,0-1.5-.67-1.5-1.5s.67-1.5,1.5-1.5h5c.83,0,1.5.67,1.5,1.5s-.67,1.5-1.5,1.5ZM911,429h-5c-.83,0-1.5-.67-1.5-1.5s.67-1.5,1.5-1.5h5c.83,0,1.5.67,1.5,1.5s-.67,1.5-1.5,1.5ZM896,429h-5c-.83,0-1.5-.67-1.5-1.5s.67-1.5,1.5-1.5h5c.83,0,1.5.67,1.5,1.5s-.67,1.5-1.5,1.5ZM881,429h-5c-.83,0-1.5-.67-1.5-1.5s.67-1.5,1.5-1.5h5c.83,0,1.5.67,1.5,1.5s-.67,1.5-1.5,1.5ZM866,429h-5c-.83,0-1.5-.67-1.5-1.5s.67-1.5,1.5-1.5h5c.83,0,1.5.67,1.5,1.5s-.67,1.5-1.5,1.5ZM851,429h-5c-.83,0-1.5-.67-1.5-1.5s.67-1.5,1.5-1.5h5c.83,0,1.5.67,1.5,1.5s-.67,1.5-1.5,1.5ZM836,429h-5c-.83,0-1.5-.67-1.5-1.5s.67-1.5,1.5-1.5h5c.83,0,1.5.67,1.5,1.5s-.67,1.5-1.5,1.5ZM821,429h-5c-.83,0-1.5-.67-1.5-1.5s.67-1.5,1.5-1.5h5c.83,0,1.5.67,1.5,1.5s-.67,1.5-1.5,1.5ZM806,429h-5c-.83,0-1.5-.67-1.5-1.5s.67-1.5,1.5-1.5h5c.83,0,1.5.67,1.5,1.5s-.67,1.5-1.5,1.5ZM791,429h-5c-.83,0-1.5-.67-1.5-1.5s.67-1.5,1.5-1.5h5c.83,0,1.5.67,1.5,1.5s-.67,1.5-1.5,1.5ZM776,429h-5c-.83,0-1.5-.67-1.5-1.5s.67-1.5,1.5-1.5h5c.83,0,1.5.67,1.5,1.5s-.67,1.5-1.5,1.5ZM761,429h-5c-.83,0-1.5-.67-1.5-1.5s.67-1.5,1.5-1.5h5c.83,0,1.5.67,1.5,1.5s-.67,1.5-1.5,1.5ZM746,429h-5c-.83,0-1.5-.67-1.5-1.5s.67-1.5,1.5-1.5h5c.83,0,1.5.67,1.5,1.5s-.67,1.5-1.5,1.5ZM731,429h-5c-.83,0-1.5-.67-1.5-1.5s.67-1.5,1.5-1.5h5c.83,0,1.5.67,1.5,1.5s-.67,1.5-1.5,1.5ZM716,429h-5c-.83,0-1.5-.67-1.5-1.5s.67-1.5,1.5-1.5h5c.83,0,1.5.67,1.5,1.5s-.67,1.5-1.5,1.5ZM701,429h-5c-.83,0-1.5-.67-1.5-1.5s.67-1.5,1.5-1.5h5c.83,0,1.5.67,1.5,1.5s-.67,1.5-1.5,1.5ZM686,429h-5c-.83,0-1.5-.67-1.5-1.5s.67-1.5,1.5-1.5h5c.83,0,1.5.67,1.5,1.5s-.67,1.5-1.5,1.5ZM671,429h-5c-.83,0-1.5-.67-1.5-1.5s.67-1.5,1.5-1.5h5c.83,0,1.5.67,1.5,1.5s-.67,1.5-1.5,1.5ZM656,429h-5c-.83,0-1.5-.67-1.5-1.5s.67-1.5,1.5-1.5h5c.83,0,1.5.67,1.5,1.5s-.67,1.5-1.5,1.5ZM641,429h-5c-.83,0-1.5-.67-1.5-1.5s.67-1.5,1.5-1.5h5c.83,0,1.5.67,1.5,1.5s-.67,1.5-1.5,1.5ZM626,429h-5c-.83,0-1.5-.67-1.5-1.5s.67-1.5,1.5-1.5h5c.83,0,1.5.67,1.5,1.5s-.67,1.5-1.5,1.5Z"/>
      <g id="_Слой_1-3" data-name="Слой_1">
        <path id="_Контур_31" data-name="Контур_31" class="cls-2" d="M881.99,433.26c-.25-.01-.49-.05-.73-.04-3.74-.01-7.49.04-11.23-.01-4.02-.05-8.03-.43-11.98-1.13-.35-.06-.7-.1-1.06-.13-.6.04-1.2-.04-1.76-.25-1.86-.43-3.69-.94-5.5-1.55-.1-.4-.46-.44-.76-.56-.8-.31-1.53-.78-2.15-1.39-.45-.5-.46-.9,0-1.38.61-.61,1.34-1.08,2.15-1.39.29-.12.66-.16.76-.56,1.95-.66,3.95-1.22,5.97-1.65.42-.15.86-.21,1.31-.16,1.06-.04,2.09-.35,3.15-.47,2.66-.31,5.33-.63,8.01-.72,4.43-.16,8.87-.02,13.3-.08.18,0,.35-.03.53-.05.24-.1.51-.14.78-.11h14.41c.29-.01.57.02.85.1.26.02.53.05.79.05,5.02.01,10.03-.04,15.06.02,2.83,0,5.63.64,8.18,1.87,1.09.56,2.07,1.31,2.88,2.23.8.94.78,2.32-.04,3.24-1.5,1.6-3.44,2.72-5.57,3.23-2.43.65-4.95.93-7.46.84-4.36-.02-8.69,0-13.04-.01-.26,0-.53.03-.79.05-.28.09-.56.12-.85.1h-14.41c-.26.03-.53,0-.78-.11v.02Z"/>
        <path id="_Контур_32" data-name="Контур_32" class="cls-1" d="M898.04,421.7c-.15.03-.3.04-.45.04h-15.14c-.15,0-.31-.03-.45-.04-1.27-4.79-2.54-9.58-3.81-14.38-1.57-5.89-3.14-11.78-4.7-17.67-.38-1.43.28-2.29,1.78-2.3.71,0,1.42.02,2.14,0,.75-.06,1.47.35,1.79,1.04,1.84,3.29,3.73,6.58,5.59,9.86.11.22.25.42.42.59.72,1.01,1.35,2.07,1.91,3.18.38.61.74,1.26,1.08,1.9.11.22.25.42.18.68.78,1.36,1.54,2.71,2.32,4.07.08.21.22.39.4.51.99,1.47,1.79,3.04,2.68,4.57.27.32.45.71.52,1.12.64,1.46,1.54,2.77,2.29,4.16.49.9.99,1.77,1.5,2.66h-.02Z"/>
        <path id="_Контур_33" data-name="Контур_33" class="cls-1" d="M881.99,433.26c.29,0,.57-.03.86-.04h14.54c.22,0,.44.03.66.05-1.17,2.05-2.34,4.11-3.49,6.17-.16.18-.26.41-.29.66.01.16-.03.32-.12.44-.93,1.64-1.84,3.27-2.78,4.9-.08.14-.19.24-.28.37-.22.14-.39.36-.47.6-.75,1.32-1.5,2.64-2.25,3.96.04.18.01.36-.09.52-.94,1.65-1.86,3.32-2.82,4.95-.07.12-.18.18-.26.3-.92,1.26-1.57,2.67-2.36,4.02-1.24,2.12-2.45,4.29-3.66,6.44-.33.68-1.04,1.09-1.79,1.04-.69-.02-1.38,0-2.07,0-1.59-.01-2.24-.84-1.82-2.36,2.77-10.41,5.54-20.81,8.32-31.21l.19-.78v-.04Z"/>
        <path id="_Контур_34" data-name="Контур_34" class="cls-1" d="M856.98,423.04c-1.14.28-2.29.54-3.43.82-1.1.28-2.18.6-3.26.99-.19.06-.4.25-.59-.01-.86-3.26-1.72-6.52-2.59-9.8-.44-1.65.17-2.46,1.9-2.46.26,0,.54.02.8,0,.78-.08,1.52.34,1.83,1.06,1.76,3.14,3.54,6.26,5.32,9.39h.02Z"/>
        <path id="_Контур_35" data-name="Контур_35" class="cls-1" d="M849.72,430.14c.1-.16.24-.15.4-.1,2.18.78,4.41,1.39,6.69,1.81.06.02.12.05.17.09-1.77,3.13-3.56,6.26-5.32,9.39-.33.71-1.07,1.14-1.84,1.07-.36-.03-.71,0-1.07-.01-.88.12-1.69-.5-1.81-1.38-.04-.28,0-.56.1-.82.83-3.12,1.66-6.23,2.49-9.33.07-.24.11-.47.15-.71h.03Z"/>
        <path id="_Контур_36" data-name="Контур_36" class="cls-6" d="M888.34,404.6c-.97-1.73-1.94-3.45-2.92-5.17-.13-.18-.21-.38-.24-.6,1.62,0,3.25-.03,4.86-.01,1.25-.01,2.27.99,2.29,2.23,0,.02,0,.03,0,.05.01.01,0,.04,0,.07.18,2.45-.78,3.56-3.27,3.38-.24,0-.48.01-.71.04h0Z"/>
        <path id="_Контур_37" data-name="Контур_37" class="cls-6" d="M885.18,456.13c.42-.95.91-1.87,1.47-2.74.54-1.02,1.13-2.02,1.7-3.02.55.01,1.11.03,1.65.05,1.29-.01,2.34,1.02,2.36,2.31.17,2.48-.77,3.59-3.3,3.43-1.28-.08-2.57-.02-3.86-.02h-.01Z"/>
        <path id="_Контур_38" data-name="Контур_38" class="cls-6" d="M891.07,445.8c.3-.85.72-1.65,1.24-2.38.58-1.15,1.23-2.25,1.95-3.31.54,0,1.07-.01,1.61.01.83-.02,1.59.46,1.93,1.22.48,1.05.48,2.26-.02,3.3-.33.74-1.08,1.2-1.89,1.18-1.61.01-3.2-.01-4.81-.02h-.01Z"/>
        <path id="_Контур_39" data-name="Контур_39" class="cls-6" d="M894.26,414.88c-.72-1.06-1.37-2.17-1.95-3.31-.53-.73-.94-1.53-1.24-2.38,1.61-.01,3.2-.03,4.81-.02.59.01,1.15.27,1.54.7,1.16,1.21.9,3.87-.48,4.69-.36.22-.78.33-1.21.32-.5,0-.98,0-1.48.01h0Z"/>
      </g>
    </g>
    <path id="_Линия_1" data-name="Линия_1" class="cls-4" d="M1703.68,649.12h-17c-.83,0-1.5-.67-1.5-1.5s.67-1.5,1.5-1.5h17c.83,0,1.5.67,1.5,1.5s-.67,1.5-1.5,1.5ZM1646.68,649.12h-20c-.83,0-1.5-.67-1.5-1.5s.67-1.5,1.5-1.5h20c.83,0,1.5.67,1.5,1.5s-.67,1.5-1.5,1.5ZM1586.68,649.12h-20c-.83,0-1.5-.67-1.5-1.5s.67-1.5,1.5-1.5h20c.83,0,1.5.67,1.5,1.5s-.67,1.5-1.5,1.5ZM1526.68,649.12h-20c-.83,0-1.5-.67-1.5-1.5s.67-1.5,1.5-1.5h20c.83,0,1.5.67,1.5,1.5s-.67,1.5-1.5,1.5ZM1466.68,649.12h-20c-.83,0-1.5-.67-1.5-1.5s.67-1.5,1.5-1.5h20c.83,0,1.5.67,1.5,1.5s-.67,1.5-1.5,1.5ZM1406.68,649.12h-20c-.83,0-1.5-.67-1.5-1.5s.67-1.5,1.5-1.5h20c.83,0,1.5.67,1.5,1.5s-.67,1.5-1.5,1.5ZM1346.68,649.12h-20c-.83,0-1.5-.67-1.5-1.5s.67-1.5,1.5-1.5h20c.83,0,1.5.67,1.5,1.5s-.67,1.5-1.5,1.5ZM1286.68,649.12h-20c-.83,0-1.5-.67-1.5-1.5s.67-1.5,1.5-1.5h20c.83,0,1.5.67,1.5,1.5s-.67,1.5-1.5,1.5ZM1226.68,649.12h-20c-.83,0-1.5-.67-1.5-1.5s.67-1.5,1.5-1.5h20c.83,0,1.5.67,1.5,1.5s-.67,1.5-1.5,1.5ZM1166.68,649.12h-20c-.83,0-1.5-.67-1.5-1.5s.67-1.5,1.5-1.5h20c.83,0,1.5.67,1.5,1.5s-.67,1.5-1.5,1.5ZM1106.68,649.12h-20c-.83,0-1.5-.67-1.5-1.5s.67-1.5,1.5-1.5h20c.83,0,1.5.67,1.5,1.5s-.67,1.5-1.5,1.5ZM1046.68,649.12h-20c-.83,0-1.5-.67-1.5-1.5s.67-1.5,1.5-1.5h20c.83,0,1.5.67,1.5,1.5s-.67,1.5-1.5,1.5ZM986.68,649.12h-20c-.83,0-1.5-.67-1.5-1.5s.67-1.5,1.5-1.5h20c.83,0,1.5.67,1.5,1.5s-.67,1.5-1.5,1.5ZM926.68,649.12h-20c-.83,0-1.5-.67-1.5-1.5s.67-1.5,1.5-1.5h20c.83,0,1.5.67,1.5,1.5s-.67,1.5-1.5,1.5ZM866.68,649.12h-20c-.83,0-1.5-.67-1.5-1.5s.67-1.5,1.5-1.5h20c.83,0,1.5.67,1.5,1.5s-.67,1.5-1.5,1.5ZM806.68,649.12h-20c-.83,0-1.5-.67-1.5-1.5s.67-1.5,1.5-1.5h20c.83,0,1.5.67,1.5,1.5s-.67,1.5-1.5,1.5ZM746.68,649.12h-20c-.83,0-1.5-.67-1.5-1.5s.67-1.5,1.5-1.5h20c.83,0,1.5.67,1.5,1.5s-.67,1.5-1.5,1.5ZM686.68,649.12h-20c-.83,0-1.5-.67-1.5-1.5s.67-1.5,1.5-1.5h20c.83,0,1.5.67,1.5,1.5s-.67,1.5-1.5,1.5ZM626.68,649.12h-20c-.83,0-1.5-.67-1.5-1.5s.67-1.5,1.5-1.5h20c.83,0,1.5.67,1.5,1.5s-.67,1.5-1.5,1.5ZM566.68,649.12h-20c-.83,0-1.5-.67-1.5-1.5s.67-1.5,1.5-1.5h20c.83,0,1.5.67,1.5,1.5s-.67,1.5-1.5,1.5ZM506.68,649.12h-20c-.83,0-1.5-.67-1.5-1.5s.67-1.5,1.5-1.5h20c.83,0,1.5.67,1.5,1.5s-.67,1.5-1.5,1.5ZM446.68,649.12h-20c-.83,0-1.5-.67-1.5-1.5s.67-1.5,1.5-1.5h20c.83,0,1.5.67,1.5,1.5s-.67,1.5-1.5,1.5ZM386.68,649.12h-20c-.83,0-1.5-.67-1.5-1.5s.67-1.5,1.5-1.5h20c.83,0,1.5.67,1.5,1.5s-.67,1.5-1.5,1.5ZM326.68,649.12h-20c-.83,0-1.5-.67-1.5-1.5s.67-1.5,1.5-1.5h20c.83,0,1.5.67,1.5,1.5s-.67,1.5-1.5,1.5ZM266.68,649.12h-20c-.83,0-1.5-.67-1.5-1.5s.67-1.5,1.5-1.5h20c.83,0,1.5.67,1.5,1.5s-.67,1.5-1.5,1.5ZM206.68,649.12h-20c-.83,0-1.5-.67-1.5-1.5s.67-1.5,1.5-1.5h20c.83,0,1.5.67,1.5,1.5s-.67,1.5-1.5,1.5ZM146.68,649.12h-20c-.83,0-1.5-.67-1.5-1.5s.67-1.5,1.5-1.5h20c.83,0,1.5.67,1.5,1.5s-.67,1.5-1.5,1.5ZM86.68,649.12h-20c-.83,0-1.5-.67-1.5-1.5s.67-1.5,1.5-1.5h20c.83,0,1.5.67,1.5,1.5s-.67,1.5-1.5,1.5Z"/>
  </g>
</svg>